#!OML:ASF H:\GeneralSubjects\Female5\Project 1\Capture day 1\Session 1\Female5.ASF
:FULLY-SPECIFIED
:DEGREES
193
root 11.4379 15.738 4.64048 205.751 -127.566 -199.952
lowerback 8.81522 2.52459 8.4315
upperback -9.16564 4.92798 2.0976
thorax -14.708 1.50188 -3.36931
lowerneck -19.5319 -0.831498 -5.18936
upperneck 39.0342 1.28067 -2.63904
head 17.7937 -0.928903 -0.122311
rclavicle 8.13526e-014 1.90833e-014
rhumerus -42.5293 32.4301 -91.9127
rradius 45.3743
rwrist -10.2177
rhand -24.222 -22.8943
rfingers 7.12502
rthumb 2.26295 -52.862
lclavicle 8.13526e-014 1.90833e-014
lhumerus -51.305 5.32016 76.2939
lradius 31.5674
lwrist -8.36559
lhand -23.2997 33.7707
lfingers 7.12502
lthumb 3.15363 63.7271
rfemur 10.8796 32.1795 44.6771
rtibia -11.3876
rfoot -74.2 -35.7556
rtoes 32.7842
lfemur -23.0314 -16.6244 2.14209
ltibia 33.3665
lfoot -23.8765 10.3311
ltoes -70.9878
194
root 11.4624 15.7263 4.7906 205.766 -127.627 -199.638
lowerback 8.33883 2.54036 8.21174
upperback -9.31688 4.86487 2.09289
thorax -14.6067 1.49706 -3.21462
lowerneck -19.5204 -1.34043 -5.31995
upperneck 39.1682 0.275682 -2.04136
head 17.871 -1.26832 -0.0312201
rclavicle 1.58034e-014 -1.74931e-014
rhumerus -43.0151 31.9905 -91.8734
rradius 45.2377
rwrist -9.98354
rhand -24.8132 -23.4628
rfingers 7.12502
rthumb 1.69203 -53.4358
lclavicle 1.58034e-014 -1.74931e-014
lhumerus -50.704 3.7328 78.0446
lradius 32.5965
lwrist -7.69879
lhand -23.5303 34.2491
lfingers 7.12502
lthumb 2.93101 64.2087
rfemur 10.9562 32.9109 44.1833
rtibia -11.0825
rfoot -75.522 -35.5587
rtoes 32.7118
lfemur -21.8552 -17.3097 1.33968
ltibia 31.2325
lfoot -25.584 11.0484
ltoes -71.1091
195
root 11.4837 15.7328 4.96066 204.785 -128.121 -198.779
lowerback 8.33372 2.31985 8.26282
upperback -9.37573 4.56113 1.96936
thorax -14.6959 1.33462 -3.32348
lowerneck -19.1851 -1.84476 -5.70509
upperneck 39.3162 -0.768329 -1.18846
head 17.8897 -1.62714 0.217379
rclavicle 5.13361e-014 1.78906e-014
rhumerus -43.7984 31.3037 -91.9542
rradius 44.9379
rwrist -9.56201
rhand -24.4995 -23.3503
rfingers 7.12502
rthumb 1.99499 -53.3207
lclavicle 5.13361e-014 1.78906e-014
lhumerus -50.2475 2.39289 79.4186
lradius 33.571
lwrist -7.71263
lhand -23.8498 35.1048
lfingers 7.12502
lthumb 2.62243 65.0685
rfemur 11.8086 32.9287 43.8512
rtibia -11.0509
rfoot -76.8748 -35.3576
rtoes 32.4388
lfemur -20.8205 -18.0186 -0.0405562
ltibia 29.9704
lfoot -25.8623 10.895
ltoes -70.6268
196
root 11.5081 15.7431 5.12399 203.609 -128.572 -197.562
lowerback 8.33537 2.11563 7.90578
upperback -9.4398 4.21426 1.80319
thorax -14.8183 1.19214 -3.24711
lowerneck -18.8022 -2.23927 -6.01038
upperneck 39.3329 -1.71069 -0.2578
head 17.8375 -1.91851 0.513072
rclavicle 5.37713e-014 -2.5842e-014
rhumerus -44.6813 30.6928 -91.9372
rradius 44.7233
rwrist -9.39941
rhand -24.2911 -23.0845
rfingers 7.12502
rthumb 2.1962 -53.053
lclavicle 5.37713e-014 -2.5842e-014
lhumerus -49.7313 1.035 80.5953
lradius 34.5682
lwrist -7.45538
lhand -23.9733 35.2902
lfingers 7.12502
lthumb 2.50316 65.2553
rfemur 12.2736 32.9423 43.0393
rtibia -10.7116
rfoot -77.8442 -35.1382
rtoes 31.7704
lfemur -20.6226 -18.4238 -1.59718
ltibia 29.851
lfoot -25.3665 9.98924
ltoes -70.1067
197
root 11.531 15.7601 5.28486 202.347 -129.031 -195.951
lowerback 8.09223 1.9636 6.98942
upperback -9.47324 3.82837 1.65788
thorax -14.773 1.1037 -2.81712
lowerneck -18.7223 -2.71463 -6.25906
upperneck 39.447 -2.75837 0.621922
head 17.945 -2.2528 0.74937
rclavicle -8.52786e-014 -6.16232e-014
rhumerus -45.3201 29.7227 -91.4625
rradius 44.4429
rwrist -8.97543
rhand -23.9382 -22.8289
rfingers 7.12502
rthumb 2.53701 -52.7936
lclavicle -8.52786e-014 -6.16232e-014
lhumerus -49.0379 -0.161608 81.7089
lradius 35.4427
lwrist -7.41785
lhand -24.2592 35.032
lfingers 7.12502
lthumb 2.227 65.0001
rfemur 12.3332 32.9497 41.7133
rtibia -10.2257
rfoot -78.65 -35.0341
rtoes 31.3186
lfemur -20.883 -18.8637 -3.28429
ltibia 30.0584
lfoot -24.9194 9.08301
ltoes -69.8847
198
root 11.5508 15.774 5.44825 201.466 -129.353 -194.451
lowerback 7.57527 1.91439 6.0276
upperback -9.52607 3.55825 1.53264
thorax -14.5613 1.08101 -2.34929
lowerneck -18.7846 -3.27394 -6.68955
upperneck 39.5581 -3.88611 1.56758
head 18.1261 -2.63509 1.02987
rclavicle 1.38155e-014 -1.59028e-014
rhumerus -45.8144 28.4668 -90.8341
rradius 43.8458
rwrist -8.74205
rhand -24.1716 -22.7548
rfingers 7.12502
rthumb 2.31165 -52.722
lclavicle 1.38155e-014 -1.59028e-014
lhumerus -48.1681 -1.09296 82.5931
lradius 36.1564
lwrist -7.76987
lhand -24.4259 33.7146
lfingers 7.12502
lthumb 2.06605 63.6844
rfemur 11.9476 33.1795 40.0866
rtibia -9.55943
rfoot -79.6064 -35.0768
rtoes 31.354
lfemur -20.9434 -19.0632 -4.88167
ltibia 29.6926
lfoot -24.7864 8.46152
ltoes -69.7999
199
root 11.5647 15.7775 5.60395 201 -129.559 -193.469
lowerback 7.13383 1.91531 5.27129
upperback -9.58342 3.40819 1.45741
thorax -14.3861 1.0923 -1.96692
lowerneck -18.7257 -3.79346 -7.01501
upperneck 39.5525 -4.94034 2.36445
head 18.22 -2.99218 1.23893
rclavicle -3.97569e-015 2.98177e-014
rhumerus -46.4141 27.3439 -90.3736
rradius 43.1075
rwrist -8.91908
rhand -24.75 -22.9503
rfingers 7.12502
rthumb 1.75307 -52.9229
lclavicle -3.97569e-015 2.98177e-014
lhumerus -47.2678 -2.15317 83.425
lradius 36.9714
lwrist -7.57941
lhand -24.4368 32.6584
lfingers 7.12502
lthumb 2.0555 62.6283
rfemur 10.8889 33.6578 38.596
rtibia -8.10972
rfoot -80.3757 -36.4215
rtoes 30.2029
lfemur -20.3857 -18.9748 -6.06007
ltibia 28.4046
lfoot -24.4972 8.12771
ltoes -69.6053
200
root 11.5988 15.7866 5.76355 200.501 -129.356 -193.037
lowerback 7.5137 2.01071 5.04887
upperback -9.56856 3.52533 1.35016
thorax -14.6053 1.15741 -2.00145
lowerneck -18.3818 -4.23437 -7.30471
upperneck 39.3648 -5.87382 3.09908
head 18.1385 -3.3076 1.44164
rclavicle -7.90169e-015 -1.63003e-014
rhumerus -46.919 25.9563 -89.8791
rradius 42.1359
rwrist -8.82856
rhand -24.6998 -23.0253
rfingers 7.12502
rthumb 1.80147 -52.9974
lclavicle -7.90169e-015 -1.63003e-014
lhumerus -46.4096 -3.17391 84.1879
lradius 37.6919
lwrist -7.14725
lhand -24.6744 32.6964
lfingers 7.12502
lthumb 1.82599 62.6684
rfemur 9.39157 34.4085 36.9559
rtibia -5.80736
rfoot -80.4557 -39.4058
rtoes 27.322
lfemur -18.636 -18.7321 -7.24092
ltibia 26.1237
lfoot -23.9338 8.11866
ltoes -69.3996
201
root 11.6043 15.7958 5.93044 199.362 -129.65 -192.101
lowerback 7.75407 1.90427 4.64861
upperback -9.43272 3.32428 1.23392
thorax -14.6176 1.10127 -1.87898
lowerneck -18.0304 -4.63447 -7.60812
upperneck 39.2256 -6.6794 3.68759
head 18.082 -3.59917 1.6046
rclavicle 1.2588e-013 5.00937e-014
rhumerus -47.263 24.369 -89.272
rradius 40.9729
rwrist -8.45326
rhand -24.3179 -23.043
rfingers 7.12502
rthumb 2.17035 -53.0117
lclavicle 1.2588e-013 5.00937e-014
lhumerus -45.5121 -4.10856 84.7617
lradius 38.1282
lwrist -6.76
lhand -24.9713 32.7679
lfingers 7.12502
lthumb 1.53926 62.7421
rfemur 7.77759 27.151 34.0063
rtibia -4.62527
rfoot -71.4285 -39.9516
rtoes 23.6983
lfemur -16.4441 -19.0082 -8.72719
ltibia 23.5209
lfoot -23.5593 7.94253
ltoes -69.3594
202
root 11.6455 15.7919 6.10339 198.54 -129.295 -191.437
lowerback 8.25548 2.00032 4.5872
upperback -9.33195 3.45931 1.05753
thorax -14.7985 1.15538 -2.08893
lowerneck -17.7422 -5.00079 -7.90153
upperneck 39.1199 -7.38538 4.16612
head 18.0573 -3.86573 1.73392
rclavicle -3.55328e-014 -5.04913e-014
rhumerus -47.5736 23.4654 -88.8538
rradius 39.7489
rwrist -8.67848
rhand -25.4088 -23.854
rfingers 7.12502
rthumb 1.1167 -53.8308
lclavicle -3.55328e-014 -5.04913e-014
lhumerus -44.5131 -4.92994 85.2046
lradius 38.4088
lwrist -6.3637
lhand -24.7578 32.7614
lfingers 7.12502
lthumb 1.74553 62.734
rfemur 4.99226 17.9371 30.3699
rtibia -1.55707
rfoot -59.3387 -38.9284
rtoes 18.9755
lfemur -14.4603 -19.2226 -10.4552
ltibia 21.4972
lfoot -23.3923 8.04271
ltoes -69.1842
203
root 11.6807 15.7844 6.27067 197.562 -128.844 -190.746
lowerback 8.916 2.07012 4.62574
upperback -9.1822 3.57947 0.857484
thorax -15.0161 1.18878 -2.38726
lowerneck -17.5406 -5.44864 -8.43652
upperneck 39.1578 -8.20209 4.77757
head 18.187 -4.19763 1.94183
rclavicle -5.46409e-014 -8.74653e-015
rhumerus -47.8359 22.8952 -88.6686
rradius 38.4163
rwrist -9.20482
rhand -27.4944 -24.3409
rfingers 7.12502
rthumb -0.897599 -54.3188
lclavicle -5.46409e-014 -8.74653e-015
lhumerus -43.6268 -5.51968 85.5056
lradius 38.6765
lwrist -6.0074
lhand -24.6135 32.7164
lfingers 7.12502
lthumb 1.8848 62.6878
rfemur 2.67515 11.5272 27.6467
rtibia 2.62591
rfoot -51.6795 -36.9623
rtoes 16.5779
lfemur -12.5323 -19.6079 -12.265
ltibia 19.943
lfoot -23.031 8.0445
ltoes -68.8039
204
root 11.6905 15.7709 6.43281 196.117 -128.481 -189.432
lowerback 9.35796 2.1046 3.88639
upperback -8.93146 3.50738 0.664921
thorax -15.0225 1.22668 -2.19285
lowerneck -17.5528 -5.77389 -8.7509
upperneck 39.0113 -8.83494 5.33398
head 18.24 -4.41923 2.11835
rclavicle -1.10798e-013 -1.94809e-014
rhumerus -47.8299 22.1214 -88.3344
rradius 37.0686
rwrist -9.18354
rhand -26.8394 -23.7747
rfingers 7.12502
rthumb -0.264982 -53.7543
lclavicle -1.10798e-013 -1.94809e-014
lhumerus -42.7729 -6.02931 85.7214
lradius 39.0419
lwrist -5.50677
lhand -24.6204 32.6882
lfingers 7.12502
lthumb 1.87814 62.6596
rfemur 0.84188 7.7613 25.2864
rtibia 6.77179
rfoot -47.6164 -35.7637
rtoes 15.7406
lfemur -10.6749 -20.2541 -14.4146
ltibia 18.5719
lfoot -22.9905 8.17485
ltoes -68.4485
205
root 11.6986 15.7501 6.59297 194.34 -127.739 -187.487
lowerback 9.70654 2.21921 2.89249
upperback -8.76153 3.46432 0.263796
thorax -15.0657 1.28679 -2.09139
lowerneck -17.479 -6.08495 -9.04295
upperneck 38.8747 -9.46513 5.88159
head 18.283 -4.64252 2.28803
rclavicle -1.92324e-014 -2.14687e-014
rhumerus -47.8453 21.6479 -88.2053
rradius 35.7602
rwrist -8.93586
rhand -23.7863 -23.9479
rfingers 7.12502
rthumb 2.68378 -53.9107
lclavicle -1.92324e-014 -2.14687e-014
lhumerus -42.1307 -6.35501 85.6499
lradius 39.3985
lwrist -5.09914
lhand -24.4195 33.2216
lfingers 7.12502
lthumb 2.0722 63.1913
rfemur -1.28405 4.91818 22.6362
rtibia 10.9548
rfoot -44.6508 -34.4659
rtoes 15.9996
lfemur -8.91696 -20.8423 -17.1028
ltibia 17.2574
lfoot -23.3285 8.70572
ltoes -68.1914
206
root 11.7048 15.7279 6.74486 192.349 -126.802 -185.027
lowerback 9.93113 2.37877 1.62354
upperback -8.66816 3.40585 -0.267151
thorax -15.1335 1.35686 -1.97281
lowerneck -17.199 -6.17767 -9.13597
upperneck 38.2519 -9.72276 6.33826
head 17.9264 -4.69829 2.45869
rclavicle -5.32494e-014 -2.94201e-014
rhumerus -47.808 21.2459 -88.1996
rradius 34.5117
rwrist -8.26982
rhand -20.9594 -23.9943
rfingers 7.12502
rthumb 5.41354 -53.9051
lclavicle -5.32494e-014 -2.94201e-014
lhumerus -41.606 -6.52566 85.2816
lradius 39.5702
lwrist -4.9896
lhand -24.2103 33.4581
lfingers 7.12502
lthumb 2.27426 63.4257
rfemur -3.73102 2.56135 19.8655
rtibia 14.8139
rfoot -41.9907 -33.0755
rtoes 14.398
lfemur -7.49518 -21.3657 -20.0601
ltibia 16.1748
lfoot -23.7113 9.3302
ltoes -67.9835
207
root 11.7034 15.7078 6.88113 190.487 -125.905 -182.468
lowerback 10.0447 2.54208 0.173415
upperback -8.679 3.31191 -0.781548
thorax -15.2758 1.42731 -1.72425
lowerneck -17.1019 -6.46131 -9.21501
upperneck 37.9817 -10.2785 6.68299
head 17.8548 -4.88966 2.50816
rclavicle -5.17089e-014 -8.74653e-015
rhumerus -47.8858 20.9038 -88.3335
rradius 33.5017
rwrist -7.40803
rhand -18.8923 -23.5416
rfingers 7.12502
rthumb 7.40909 -53.3919
lclavicle -5.17089e-014 -8.74653e-015
lhumerus -41.2756 -6.72027 84.764
lradius 39.6133
lwrist -4.87411
lhand -23.9109 32.9756
lfingers 7.12502
lthumb 2.56341 62.9399
rfemur -6.57601 0.438033 17.4148
rtibia 18.3461
rfoot -39.009 -31.7775
rtoes 8.22873
lfemur -6.61599 -21.8307 -22.7834
ltibia 15.5329
lfoot -24.2058 9.83889
ltoes -67.7325
